<svg id="visual" viewBox="0 0 900 600" width="900" height="600" xmlns="http://www.w3.org/2000/svg" xmlns:xlink="http://www.w3.org/1999/xlink" version="1.1"><rect x="0" y="0" width="900" height="600" fill="#fff"></rect><path d="M0 420L30 385C60 350 120 280 180 236C240 192 300 174 360 216.5C420 259 480 362 540 364C600 366 660 267 720 266.8C780 266.7 840 365.3 870 414.7L900 464L900 601L870 601C840 601 780 601 720 601C660 601 600 601 540 601C480 601 420 601 360 601C300 601 240 601 180 601C120 601 60 601 30 601L0 601Z" fill="#000" stroke-linecap="round" stroke-linejoin="miter"></path></svg>